# xmcd CD database file
#
# Track frame offsets:
#	150
#	17381
#	35296
#	50573
#	65579
#	81709
#	96392
#	114034
#	128507
#	140933
#	155092
#	172543
#
# Disc length: 2485 seconds
#
# Revision: 0
# Processed by: cddbd v1.5.2PL0 Copyright (c) Steve Scherf et al.
# Submitted via: CDex 1.51
#
DISCID=9a09b30c
DTITLE=Tom Beck - Americanized
DYEAR=2012
DGENRE=Country
TTITLE0=Dead Yet
TTITLE1=Perfect Day
TTITLE2=What Part Of Forever
TTITLE3=Ain't Got You
TTITLE4=Love You With My Eyes Closed
TTITLE5=When You Go
TTITLE6=Almost You
TTITLE7=Nice Gys Finish Last
TTITLE8=Go My Way
TTITLE9=Macho Man
TTITLE10=Can't Turn Off Love
TTITLE11=Holding Hands When We Die
EXTD=YEAR: 2012
EXTT0=
EXTT1=
EXTT2=
EXTT3=
EXTT4=
EXTT5=
EXTT6=
EXTT7=
EXTT8=
EXTT9=
EXTT10=
EXTT11=
PLAYORDER=
